<?xml version="1.0" encoding="UTF-8"?> <svg xmlns="http://www.w3.org/2000/svg" id="Layer_1" data-name="Layer 1" viewBox="0 0 499.29 188.69"><defs><style>.cls-1{fill:#ec782a;}.cls-2{fill:none;stroke:#ec782a;stroke-miterlimit:10;}</style></defs><path class="cls-1" d="M262.16,250.07c-.1,1.23-.14,2.07-.22,2.9a979.28,979.28,0,0,0-4.38,104.74q.12,13.77.1,27.54a2.25,2.25,0,0,1-.89,1.68c-8.59,4.33-17.23,8.57-25.86,12.84a3,3,0,0,1-.58.05c4.21-34,7.73-67.95,8.86-102.17-.29,1.21-.58,2.42-.85,3.63a100.47,100.47,0,0,1-25.25,47.42c-7.59,8-16.41,14.3-27.14,17.55-14.91,4.5-27.62-1-34.78-14.83-4.77-9.27-4.82-18.94-2.68-28.82,2.82-13,9.36-24.28,16.8-35.08,14.16-20.51,32.21-37,52.61-51.16a155.27,155.27,0,0,1,33.24-17.51c10.4-3.95,21.08-6.87,32.35-6.66,7.93.15,15.42,1.95,22,6.58,6.91,4.85,10.67,11.68,12,19.84,1.77,10.59-.3,20.74-4.17,30.57-5.79,14.67-15.27,26.84-26.29,37.91-2.19,2.21-4.47,4.36-6.86,6.36-1.33,1.12-1.39,2.09-.76,3.59A87.31,87.31,0,0,0,298,344.87c11.54,11.61,25.21,19.37,41.49,22,11.16,1.79,22.07.33,32.74-3.27a80.72,80.72,0,0,0,20.38-10.41,10.4,10.4,0,0,1,1.3-.65c0,.72,0,1.32,0,1.91-.49,8.37-1,16.75-1.45,25.12a2.65,2.65,0,0,1-1.71,2.65c-14.06,6.58-28.63,11.17-44.32,11.26a70.31,70.31,0,0,1-47.71-17.54c-11.22-9.65-19.18-21.66-25.45-34.91a164.64,164.64,0,0,1-9.51-25.63,2.85,2.85,0,0,1,1-3.43,96.36,96.36,0,0,0,20.4-25.11c5.07-9.07,8.24-18.71,8-29.24-.12-6.16-1.73-11.89-5.93-16.59-4.68-5.24-10.87-7.09-17.66-7.22s-13.09,1.65-19.25,4.17c-18.71,7.63-33.86,20.17-47.44,34.78-9,9.66-17.15,20-23,31.94-3.11,6.36-5.64,13-5.24,20.24a23.28,23.28,0,0,0,2.12,8.44c3,6.32,9.19,8.43,15.76,5.92s11.6-7,16.23-12c9.39-10.23,16.11-22.13,21.5-34.84a126.53,126.53,0,0,0,8.61-29.58,2.58,2.58,0,0,1,1.05-1.73c7.27-3.67,14.58-7.27,22.26-11.07" transform="translate(-146.63 -211.68)"></path><path class="cls-2" d="M262.16,250.07c-.1,1.23-.14,2.07-.22,2.9a979.28,979.28,0,0,0-4.38,104.74q.12,13.77.1,27.54a2.25,2.25,0,0,1-.89,1.68c-8.59,4.33-17.23,8.57-25.86,12.84a3,3,0,0,1-.58.05c4.21-34,7.73-67.95,8.86-102.17-.29,1.21-.58,2.42-.85,3.63a100.47,100.47,0,0,1-25.25,47.42c-7.59,8-16.41,14.3-27.14,17.55-14.91,4.5-27.62-1-34.78-14.83-4.77-9.27-4.82-18.94-2.68-28.82,2.82-13,9.36-24.28,16.8-35.08,14.16-20.51,32.21-37,52.61-51.16a155.27,155.27,0,0,1,33.24-17.51c10.4-3.95,21.08-6.87,32.35-6.66,7.93.15,15.42,1.95,22,6.58,6.91,4.85,10.67,11.68,12,19.84,1.77,10.59-.3,20.74-4.17,30.57-5.79,14.67-15.27,26.84-26.29,37.91-2.19,2.21-4.47,4.36-6.86,6.36-1.33,1.12-1.39,2.09-.76,3.59A87.31,87.31,0,0,0,298,344.87c11.54,11.61,25.21,19.37,41.49,22,11.16,1.79,22.07.33,32.74-3.27a80.72,80.72,0,0,0,20.38-10.41,10.4,10.4,0,0,1,1.3-.65c0,.72,0,1.32,0,1.91-.49,8.37-1,16.75-1.45,25.12a2.65,2.65,0,0,1-1.71,2.65c-14.06,6.58-28.63,11.17-44.32,11.26a70.31,70.31,0,0,1-47.71-17.54c-11.22-9.65-19.18-21.66-25.45-34.91a164.64,164.64,0,0,1-9.51-25.63,2.85,2.85,0,0,1,1-3.43,96.36,96.36,0,0,0,20.4-25.11c5.07-9.07,8.24-18.71,8-29.24-.12-6.16-1.73-11.89-5.93-16.59-4.68-5.24-10.87-7.09-17.66-7.22s-13.09,1.65-19.25,4.17c-18.71,7.63-33.86,20.17-47.44,34.78-9,9.66-17.15,20-23,31.94-3.11,6.36-5.64,13-5.24,20.24a23.28,23.28,0,0,0,2.12,8.44c3,6.32,9.19,8.43,15.76,5.92s11.6-7,16.23-12c9.39-10.23,16.11-22.13,21.5-34.84a126.53,126.53,0,0,0,8.61-29.58,2.58,2.58,0,0,1,1.05-1.73C247.17,257.47,254.48,253.87,262.16,250.07Z" transform="translate(-146.63 -211.68)"></path><path class="cls-1" d="M460.19,247.84c-1.27,2.53-2.44,4.83-3.61,7.16-2.55-.49-5.05-1.13-7.58-1.44-10-1.25-19.48.22-27.48,6.76-7.28,5.94-12,13.57-13.31,23.05a12.61,12.61,0,0,0,.74,6.92c1.48,3.32,4.71,4.82,8.6,4a19.84,19.84,0,0,0,10.8-6.64c5.48-6.06,9.29-13.2,13.13-20.32,1.21-2.23,2.34-4.5,3.58-6.71a2.06,2.06,0,0,1,1.33-1c6.22-.28,12.44-.46,18.91-.68-.25.56-.43,1-.62,1.37-3.84,8.13-7.72,16.23-11.49,24.39a13.7,13.7,0,0,0-1.08,4.56c-.26,3.29,2.09,5.43,5.38,5.14a15,15,0,0,0,7.65-3,38.86,38.86,0,0,0,10.22-11.52,1.91,1.91,0,0,1,1.95-1.07c1.86,0,3.72-.09,5.91-.17-.46.9-.79,1.6-1.16,2.27a55.25,55.25,0,0,1-20.55,21.56c-4.76,2.78-9.83,4.2-15.39,3.13-4.89-.95-7.83-3.92-9.08-8.67-.09-.37-.19-.74-.29-1.11,0-.13-.09-.27-.21-.6l-1.6,1.46A38.6,38.6,0,0,1,414.79,307c-15.93,2.69-25.17-9.19-25.67-20.82s4.35-20.67,13-27.78c15.35-12.63,32.94-16.33,52.26-12.27,1.91.41,3.75,1.12,5.81,1.74" transform="translate(-146.63 -211.68)"></path><path class="cls-2" d="M460.19,247.84c-1.27,2.53-2.44,4.83-3.61,7.16-2.55-.49-5.05-1.13-7.58-1.44-10-1.25-19.48.22-27.48,6.76-7.28,5.94-12,13.57-13.31,23.05a12.61,12.61,0,0,0,.74,6.92c1.48,3.32,4.71,4.82,8.6,4a19.84,19.84,0,0,0,10.8-6.64c5.48-6.06,9.29-13.2,13.13-20.32,1.21-2.23,2.34-4.5,3.58-6.71a2.06,2.06,0,0,1,1.33-1c6.22-.28,12.44-.46,18.91-.68-.25.56-.43,1-.62,1.37-3.84,8.13-7.72,16.23-11.49,24.39a13.7,13.7,0,0,0-1.08,4.56c-.26,3.29,2.09,5.43,5.38,5.14a15,15,0,0,0,7.65-3,38.86,38.86,0,0,0,10.22-11.52,1.91,1.91,0,0,1,1.95-1.07c1.86,0,3.72-.09,5.91-.17-.46.9-.79,1.6-1.16,2.27a55.25,55.25,0,0,1-20.55,21.56c-4.76,2.78-9.83,4.2-15.39,3.13-4.89-.95-7.83-3.92-9.08-8.67-.09-.37-.19-.74-.29-1.11,0-.13-.09-.27-.21-.6l-1.6,1.46A38.6,38.6,0,0,1,414.79,307c-15.93,2.69-25.17-9.19-25.67-20.82s4.35-20.67,13-27.78c15.35-12.63,32.94-16.33,52.26-12.27C456.29,246.51,458.13,247.22,460.19,247.84Z" transform="translate(-146.63 -211.68)"></path><path class="cls-1" d="M379.18,311.65c-.05.12-.1.25-.15.41-4.33,14.29-13.4,24.68-26.47,31.65-6,3.2-12.38,4.91-19.26,4.07-8.17-1-14-5.34-17.9-12.51-5.49-10.09-4.91-20.37-1-30.72,5.41-14.25,15.43-24.35,28.66-31.53a91.93,91.93,0,0,1,20.14-7.69c.24,2.72.52,5.34.65,8,0,.31-.8.78-1.3,1a43.25,43.25,0,0,0-14.3,8.43c-9.58,8.93-14.6,19.79-13.59,33,.37,4.89,2.39,9.25,6.7,12,4.5,2.91,9.11,2.05,13.51-.35,5.84-3.18,11.12-10.45,12.64-17.15-.44-.17-.89-.35-1.34-.51-6.89-2.54-11.79-9.44-11.68-16.45.15-8.48,9.32-15.1,17.18-12.38a10.35,10.35,0,0,1,6.21,5.92,33.82,33.82,0,0,1,2.82,13.7c0,.55,0,1.09,0,1.64a4.42,4.42,0,0,0,.27.74s4.53,7.14,12.76-5.48,0,.32,0,.32l3.94,2.53s-9.64,24.46-18.58,11.37" transform="translate(-146.63 -211.68)"></path><path class="cls-2" d="M379.18,311.65c-.05.12-.1.25-.15.41-4.33,14.29-13.4,24.68-26.47,31.65-6,3.2-12.38,4.91-19.26,4.07-8.17-1-14-5.34-17.9-12.51-5.49-10.09-4.91-20.37-1-30.72,5.41-14.25,15.43-24.35,28.66-31.53a91.93,91.93,0,0,1,20.14-7.69c.24,2.72.52,5.34.65,8,0,.31-.8.78-1.3,1a43.25,43.25,0,0,0-14.3,8.43c-9.58,8.93-14.6,19.79-13.59,33,.37,4.89,2.39,9.25,6.7,12,4.5,2.91,9.11,2.05,13.51-.35,5.84-3.18,11.12-10.45,12.64-17.15-.44-.17-.89-.35-1.34-.51-6.89-2.54-11.79-9.44-11.68-16.45.15-8.48,9.32-15.1,17.18-12.38a10.35,10.35,0,0,1,6.21,5.92,33.82,33.82,0,0,1,2.82,13.7c0,.55,0,1.09,0,1.64a4.42,4.42,0,0,0,.27.74s4.53,7.14,12.76-5.48,0,.32,0,.32l3.94,2.53S388.12,324.74,379.18,311.65Z" transform="translate(-146.63 -211.68)"></path><path class="cls-1" d="M541.3,249.84c-6.38-2.3-12.58-3.61-19.11-2.36-11.22,2.16-19.26,8.76-25.21,18.15a19.7,19.7,0,0,0-3.48,11.51c.16,3.86,2.37,6.29,6.2,6.58a16.66,16.66,0,0,0,4.56-.34,32.49,32.49,0,0,0,12.11-5.73,64.78,64.78,0,0,0,13.56-13.15c3.79-4.81,7.5-9.66,11.37-14.66m29.87,32c-8,9.54-17.57,16.54-30,19a19.82,19.82,0,0,1-9.94-.44c-6.13-2-8.93-6.56-8.26-13.2.06-.65.17-1.29.3-2.22-2.64,1.7-4.94,3.3-7.36,4.71-5.41,3.17-11.14,5.57-17.46,6.13-6.89.61-13.12-.91-18.1-6.08a19.06,19.06,0,0,1-5.21-13.3c-.18-8,2.73-14.79,8-20.74,7.5-8.45,16.44-14.41,27.62-16.7a55.51,55.51,0,0,1,24.2.54c3.52.83,7,2.06,10.4,3.2a1.44,1.44,0,0,0,1.88-.69c5.29-7,10.62-14.05,15.88-21.09a2,2,0,0,1,2.15-.89c5.54.81,11.09,1.56,16.89,2.37-.39.57-.65,1-.93,1.39-9.43,13.25-18.91,26.46-28.26,39.76-3.48,5-7.2,9.83-9.5,15.5a27.33,27.33,0,0,0-1.94,7.56c-.3,3.34,1.76,4.87,5.12,4.3a19.91,19.91,0,0,0,8.71-4.19c2.38-1.84,4.54-4,6.84-5.91a2.3,2.3,0,0,1,1.46-.59c2.51.27,5,.66,7.49,1,0,.19,0,.39,0,.58" transform="translate(-146.63 -211.68)"></path><path class="cls-2" d="M541.3,249.84c-6.38-2.3-12.58-3.61-19.11-2.36-11.22,2.16-19.26,8.76-25.21,18.15a19.7,19.7,0,0,0-3.48,11.51c.16,3.86,2.37,6.29,6.2,6.58a16.66,16.66,0,0,0,4.56-.34,32.49,32.49,0,0,0,12.11-5.73,64.78,64.78,0,0,0,13.56-13.15C533.72,259.69,537.43,254.84,541.3,249.84Zm29.87,32c-8,9.54-17.57,16.54-30,19a19.82,19.82,0,0,1-9.94-.44c-6.13-2-8.93-6.56-8.26-13.2.06-.65.17-1.29.3-2.22-2.64,1.7-4.94,3.3-7.36,4.71-5.41,3.17-11.14,5.57-17.46,6.13-6.89.61-13.12-.91-18.1-6.08a19.06,19.06,0,0,1-5.21-13.3c-.18-8,2.73-14.79,8-20.74,7.5-8.45,16.44-14.41,27.62-16.7a55.51,55.51,0,0,1,24.2.54c3.52.83,7,2.06,10.4,3.2a1.44,1.44,0,0,0,1.88-.69c5.29-7,10.62-14.05,15.88-21.09a2,2,0,0,1,2.15-.89c5.54.81,11.09,1.56,16.89,2.37-.39.57-.65,1-.93,1.39-9.43,13.25-18.91,26.46-28.26,39.76-3.48,5-7.2,9.83-9.5,15.5a27.33,27.33,0,0,0-1.94,7.56c-.3,3.34,1.76,4.87,5.12,4.3a19.91,19.91,0,0,0,8.71-4.19c2.38-1.84,4.54-4,6.84-5.91a2.3,2.3,0,0,1,1.46-.59c2.51.27,5,.66,7.49,1C571.14,281.47,571.16,281.67,571.17,281.86Z" transform="translate(-146.63 -211.68)"></path><path class="cls-1" d="M580.79,308.28l-.21-.36c-2,.82-4,1.56-6,2.46a22.72,22.72,0,0,0-7.92,5.32,7.1,7.1,0,0,0-1.56,3.11,2.29,2.29,0,0,0,3,2.72,7.32,7.32,0,0,0,2.56-1.23c4.28-3.26,7.18-7.69,10.18-12m61.62-58.08c-11,15.5-21.82,30.82-32.65,46.14.06.11.13.21.2.32,2.37-.67,4.76-1.28,7.12-2a79,79,0,0,0,18.75-8.56,2.78,2.78,0,0,1,1.95-.26c2.27.55,4.5,1.25,7.09,2C643.46,289,642.25,290,641,291a78.57,78.57,0,0,1-37.22,15.46,2.86,2.86,0,0,0-2.07,1.3c-3.64,4.91-7.1,10-11.05,14.65A38.82,38.82,0,0,1,576,333.44c-4.93,2-10,2.63-15.11.7-10.2-3.86-12.21-16.51-3.71-23.64,4.29-3.61,9.47-5.54,14.73-7.23,1.58-.51,3.2-.93,5.22-1.51l-3.24-.95c-7.58-2.35-11.42-8.7-10.18-16.54a37.58,37.58,0,0,1,5.51-13.74q7.56-12.45,15.15-24.87a2.06,2.06,0,0,1,1.51-.9c5.44.45,10.88,1,16.31,1.52a5.33,5.33,0,0,1,.78.18c-.35.58-.63,1.1-.94,1.6q-9.37,15.12-18.73,30.26A28.74,28.74,0,0,0,581,283c-1.22,3.15-.8,5.37,1.14,6.95a6.61,6.61,0,0,0,7.43,0,31.34,31.34,0,0,0,6.11-5.17c4.76-5.61,9.32-11.4,13.82-17.23s9-12,13.5-18.05a1.84,1.84,0,0,1,1.84-1c5.53.57,11.06,1.07,16.59,1.61.24,0,.47.09,1,.19" transform="translate(-146.63 -211.68)"></path><path class="cls-2" d="M580.79,308.28l-.21-.36c-2,.82-4,1.56-6,2.46a22.72,22.72,0,0,0-7.92,5.32,7.1,7.1,0,0,0-1.56,3.11,2.29,2.29,0,0,0,3,2.72,7.32,7.32,0,0,0,2.56-1.23C574.89,317,577.79,312.61,580.79,308.28Zm61.62-58.08c-11,15.5-21.82,30.82-32.65,46.14.06.11.13.21.2.32,2.37-.67,4.76-1.28,7.12-2a79,79,0,0,0,18.75-8.56,2.78,2.78,0,0,1,1.95-.26c2.27.55,4.5,1.25,7.09,2C643.46,289,642.25,290,641,291a78.57,78.57,0,0,1-37.22,15.46,2.86,2.86,0,0,0-2.07,1.3c-3.64,4.91-7.1,10-11.05,14.65A38.82,38.82,0,0,1,576,333.44c-4.93,2-10,2.63-15.11.7-10.2-3.86-12.21-16.51-3.71-23.64,4.29-3.61,9.47-5.54,14.73-7.23,1.58-.51,3.2-.93,5.22-1.51l-3.24-.95c-7.58-2.35-11.42-8.7-10.18-16.54a37.58,37.58,0,0,1,5.51-13.74q7.56-12.45,15.15-24.87a2.06,2.06,0,0,1,1.51-.9c5.44.45,10.88,1,16.31,1.52a5.33,5.33,0,0,1,.78.18c-.35.58-.63,1.1-.94,1.6q-9.37,15.12-18.73,30.26A28.74,28.74,0,0,0,581,283c-1.22,3.15-.8,5.37,1.14,6.95a6.61,6.61,0,0,0,7.43,0,31.34,31.34,0,0,0,6.11-5.17c4.76-5.61,9.32-11.4,13.82-17.23s9-12,13.5-18.05a1.84,1.84,0,0,1,1.84-1c5.53.57,11.06,1.07,16.59,1.61C641.69,250,641.92,250.1,642.41,250.2Z" transform="translate(-146.63 -211.68)"></path></svg> 